<svg width="416" height="322" viewBox="0 0 416 322" fill="none" xmlns="http://www.w3.org/2000/svg">
<path fill-rule="evenodd" clip-rule="evenodd" d="M225.16 0.694336C187.242 0.694336 152.392 13.7573 124.873 35.6127H80.3987C74.6205 35.6127 69.8928 40.3267 69.8928 46.0883C69.8928 51.8498 74.6205 56.5638 80.3987 56.5638H103.033H109.666C115.444 56.5638 120.172 61.2778 120.172 67.0393C120.172 69.9166 118.988 72.5424 117.083 74.435C115.185 76.3346 112.551 77.5148 109.666 77.5148H95.5152H87.7016H49.5815C43.8033 77.5148 39.0757 82.2288 39.0757 87.9903C39.0757 93.7519 43.8033 98.4659 49.5815 98.4659H76.8715C68.6335 117.77 64.0705 139.011 64.0705 161.319C64.0705 169.413 64.6728 177.367 65.8285 185.14C66.3117 188.388 66.8931 191.607 67.5724 194.792C87.3935 191.768 108.419 189.337 130.369 187.564L132.022 189.065L133.577 187.312C159.947 185.266 187.626 184.177 216.174 184.177C276.828 184.177 333.587 189.093 382.117 197.641C383.988 189.554 385.248 181.236 385.844 172.73C386.117 168.959 386.25 165.153 386.25 161.319C386.25 72.6053 314.131 0.694336 225.16 0.694336Z" fill="#F6E7E7"/>
<path fill-rule="evenodd" clip-rule="evenodd" d="M17.6801 77.0303H11.3132C5.46009 77.0303 0.671143 81.8394 0.671143 87.7173C0.671143 93.5952 5.46009 98.4043 11.3132 98.4043H17.6801C23.5332 98.4043 28.3222 93.5952 28.3222 87.7173C28.3222 81.8394 23.5332 77.0303 17.6801 77.0303Z" fill="#F6E7E7"/>
<mask id="mask0_3614_46620" style="mask-type:luminance" maskUnits="userSpaceOnUse" x="67" y="184" width="349" height="138">
<path fill-rule="evenodd" clip-rule="evenodd" d="M415.329 184.407V321.305H241.341H67.3538V184.407H415.329Z" fill="white"/>
</mask>
<g mask="url(#mask0_3614_46620)">
<path fill-rule="evenodd" clip-rule="evenodd" d="M415.329 237.336C415.329 243.061 410.602 247.745 404.825 247.745H337.737C334.852 247.745 332.22 248.918 330.322 250.806C328.417 252.686 327.233 255.296 327.233 258.155C327.233 263.88 331.96 268.564 337.737 268.564H350.201C353.085 268.564 355.719 269.737 357.617 271.624C359.521 273.505 360.705 276.114 360.705 278.974C360.705 284.699 355.978 289.383 350.201 289.383H321.541C294.617 309.425 261.161 321.305 224.904 321.305C147.466 321.305 82.7936 267.141 67.3538 194.955C87.17 191.951 108.191 189.536 130.136 187.773L131.787 189.265L133.343 187.523C159.705 185.49 187.379 184.407 215.92 184.407C276.558 184.407 333.304 189.293 381.822 197.787C379.463 207.905 376.13 217.648 371.929 226.926H404.825C407.717 226.926 410.336 228.099 412.241 229.987C414.145 231.867 415.329 234.477 415.329 237.336Z" fill="#E8EBF2"/>
</g>
<path fill-rule="evenodd" clip-rule="evenodd" d="M384.713 172.256C384.119 180.924 382.86 189.4 380.992 197.641C332.527 188.93 275.842 183.921 215.269 183.921C186.759 183.921 159.116 185.03 132.782 187.115L151.045 166.085L179.455 184.511L217.913 173.957L284.073 183.921L312.795 173.957L320.069 183.921L337.425 171.118L353.643 185.891L379.223 165.58L384.713 172.256Z" fill="#E0E2EE"/>
<path fill-rule="evenodd" clip-rule="evenodd" d="M132.782 186.954L131.292 188.481L129.709 187.173C130.728 187.094 131.755 187.021 132.782 186.954Z" fill="#F1F2F7"/>
<path fill-rule="evenodd" clip-rule="evenodd" d="M129.709 187.347C107.766 189.124 86.7476 191.558 66.9333 194.587C66.2542 191.398 65.673 188.173 65.1899 184.92L99.1537 159.473L129.709 187.347Z" fill="#E0E2EE"/>
<path fill-rule="evenodd" clip-rule="evenodd" d="M381.641 289.244C375.726 289.244 370.887 284.435 370.887 278.557C370.887 272.679 375.726 267.87 381.641 267.87C387.555 267.87 392.394 272.679 392.394 278.557C392.394 284.435 387.555 289.244 381.641 289.244Z" fill="#E1E3EF"/>
<g filter="url(#filter0_f_3614_46620)">
<path d="M226.921 248.787C260.828 248.787 288.315 247.078 288.315 244.97C288.315 242.862 260.828 241.153 226.921 241.153C193.014 241.153 165.527 242.862 165.527 244.97C165.527 247.078 193.014 248.787 226.921 248.787Z" fill="#D49091" fill-opacity="0.4"/>
</g>
<path d="M306.148 111.764C307.099 111.764 307.87 110.995 307.87 110.047C307.87 109.098 307.099 108.329 306.148 108.329C305.197 108.329 304.426 109.098 304.426 110.047C304.426 110.995 305.197 111.764 306.148 111.764Z" fill="#B53D40"/>
<path d="M244.16 220.543C245.111 220.543 245.882 219.774 245.882 218.825C245.882 217.876 245.111 217.107 244.16 217.107C243.209 217.107 242.438 217.876 242.438 218.825C242.438 219.774 243.209 220.543 244.16 220.543Z" fill="#B53D40"/>
<path d="M282.041 186.191C282.992 186.191 283.763 185.422 283.763 184.473C283.763 183.525 282.992 182.756 282.041 182.756C281.09 182.756 280.32 183.525 280.32 184.473C280.32 185.422 281.09 186.191 282.041 186.191Z" fill="#CFCFCF"/>
<path d="M260.642 130.669C246.854 130.669 232.849 130.109 219.749 126.473C206.648 122.837 195.14 115.982 184.537 107.969C177.643 102.741 171.346 98.599 162.425 99.232C153.676 99.6975 145.309 102.963 138.559 108.547C127.105 118.514 128.914 136.946 133.438 149.897C140.278 169.432 161.104 182.98 178.801 191.825C199.248 202.027 221.703 207.96 244.231 211.379C264.134 214.381 289.34 216.552 306.439 203.655C322.163 191.825 326.47 164.784 322.616 146.533C321.683 141.138 318.814 136.27 314.546 132.84C303.508 124.773 287.042 130.163 274.629 130.434C270.051 130.543 265.347 130.651 260.642 130.669Z" fill="#D49091"/>
<path d="M251.941 81.6875V88.6875" stroke="#B53D40" stroke-linecap="round" stroke-linejoin="round"/>
<path d="M248.941 84.6875H254.941" stroke="#B53D40" stroke-linecap="round" stroke-linejoin="round"/>
<path d="M293.567 107.014L168.546 96.0101C164.923 95.6912 161.725 98.3526 161.404 101.955L153.621 189.338C153.3 192.94 155.977 196.118 159.601 196.437L284.621 207.441C288.245 207.76 291.443 205.098 291.763 201.497L299.547 114.113C299.868 110.511 297.191 107.333 293.567 107.014Z" fill="#F6E7E7" stroke="#B53D40" stroke-linecap="round" stroke-linejoin="round"/>
<path d="M263.355 138.963L192.661 132.741C191.009 132.595 189.551 133.809 189.404 135.452L188.969 140.343C188.822 141.986 190.043 143.435 191.696 143.581L262.389 149.803C264.042 149.949 265.5 148.735 265.646 147.092L266.082 142.201C266.228 140.558 265.007 139.109 263.355 138.963Z" fill="white"/>
<path d="M263.355 138.963L192.661 132.741C191.009 132.595 189.551 133.809 189.404 135.452L188.969 140.343C188.822 141.986 190.043 143.435 191.696 143.581L262.389 149.803C264.042 149.949 265.5 148.735 265.646 147.092L266.082 142.201C266.228 140.558 265.007 139.109 263.355 138.963Z" fill="#F6E7E7" fill-opacity="0.5"/>
<path d="M263.355 138.963L192.661 132.741C191.009 132.595 189.551 133.809 189.404 135.452L188.969 140.343C188.822 141.986 190.043 143.435 191.696 143.581L262.389 149.803C264.042 149.949 265.5 148.735 265.646 147.092L266.082 142.201C266.228 140.558 265.007 139.109 263.355 138.963Z" stroke="#C15D5F" stroke-linecap="round" stroke-linejoin="round"/>
<path d="M261.469 160.085L190.776 153.863C189.123 153.718 187.665 154.931 187.519 156.574L187.083 161.465C186.936 163.108 188.157 164.558 189.81 164.703L260.504 170.925C262.156 171.071 263.614 169.857 263.761 168.214L264.196 163.323C264.343 161.68 263.122 160.231 261.469 160.085Z" fill="white"/>
<path d="M261.469 160.085L190.776 153.863C189.123 153.718 187.665 154.931 187.519 156.574L187.083 161.465C186.936 163.108 188.157 164.558 189.81 164.703L260.504 170.925C262.156 171.071 263.614 169.857 263.761 168.214L264.196 163.323C264.343 161.68 263.122 160.231 261.469 160.085Z" fill="#F6E7E7" fill-opacity="0.5"/>
<path d="M261.469 160.085L190.776 153.863C189.123 153.718 187.665 154.931 187.519 156.574L187.083 161.465C186.936 163.108 188.157 164.558 189.81 164.703L260.504 170.925C262.156 171.071 263.614 169.857 263.761 168.214L264.196 163.323C264.343 161.68 263.122 160.231 261.469 160.085Z" stroke="#B53D40" stroke-linecap="round" stroke-linejoin="round"/>
<path d="M236.227 179.527L212.2 177.412C210.936 177.301 209.82 178.23 209.708 179.486L209.148 185.775C209.036 187.032 209.97 188.141 211.234 188.252L235.262 190.367C236.526 190.479 237.642 189.55 237.753 188.293L238.314 182.004C238.426 180.747 237.491 179.638 236.227 179.527Z" fill="#D49091"/>
<path d="M248.177 101.458C248.177 105.535 246.932 109.52 244.598 112.909C242.265 116.298 238.948 118.94 235.068 120.5C231.187 122.06 226.917 122.468 222.798 121.673C218.678 120.878 214.894 118.915 211.924 116.032C208.954 113.15 206.932 109.477 206.112 105.479C205.293 101.481 205.714 97.3372 207.321 93.5712C208.928 89.8051 211.65 86.5862 215.143 84.3214C218.635 82.0567 222.741 80.8479 226.941 80.8479C229.734 80.8338 232.502 81.3572 235.085 82.388C237.668 83.4188 240.015 84.9364 241.99 86.8531C243.965 88.7698 245.529 91.0475 246.591 93.5544C247.653 96.0614 248.192 98.7479 248.177 101.458Z" fill="#F6E7E7" stroke="#A20D10" stroke-linecap="round" stroke-linejoin="round"/>
<path d="M242.438 114.514C240.522 116.883 238.146 118.785 235.47 120.089C232.795 121.393 229.886 122.069 226.941 122.069C223.996 122.069 221.086 121.393 218.411 120.089C215.736 118.785 213.359 116.883 211.444 114.514C211.709 110.351 213.457 106.451 216.334 103.602C219.211 100.753 223.003 99.168 226.941 99.168C230.879 99.168 234.67 100.753 237.547 103.602C240.424 106.451 242.173 110.351 242.438 114.514Z" fill="#A20D10"/>
<path d="M226.941 96.8787C231.062 96.8787 234.403 93.5464 234.403 89.4359C234.403 85.3254 231.062 81.9932 226.941 81.9932C222.82 81.9932 219.479 85.3254 219.479 89.4359C219.479 93.5464 222.82 96.8787 226.941 96.8787Z" fill="#A20D10"/>
<path d="M208.574 142.68C210.159 142.68 211.444 141.142 211.444 139.245C211.444 137.348 210.159 135.81 208.574 135.81C206.989 135.81 205.704 137.348 205.704 139.245C205.704 141.142 206.989 142.68 208.574 142.68Z" fill="#B53D40"/>
<path d="M220.627 143.825C222.529 143.825 224.071 142.287 224.071 140.39C224.071 138.493 222.529 136.955 220.627 136.955C218.725 136.955 217.184 138.493 217.184 140.39C217.184 142.287 218.725 143.825 220.627 143.825Z" fill="#B53D40"/>
<path d="M233.829 144.97C235.414 144.97 236.698 143.432 236.698 141.535C236.698 139.638 235.414 138.1 233.829 138.1C232.244 138.1 230.959 139.638 230.959 141.535C230.959 143.432 232.244 144.97 233.829 144.97Z" fill="#B53D40"/>
<path d="M246.456 146.115C248.041 146.115 249.326 144.577 249.326 142.68C249.326 140.783 248.041 139.245 246.456 139.245C244.871 139.245 243.586 140.783 243.586 142.68C243.586 144.577 244.871 146.115 246.456 146.115Z" fill="#B53D40"/>
<path d="M156.512 86.5732V93.7399" stroke="#B53D40" stroke-linecap="round" stroke-linejoin="round"/>
<path d="M152.899 90.1572H160.108" stroke="#B53D40" stroke-linecap="round" stroke-linejoin="round"/>
<path d="M185.21 206.802V213.968" stroke="#B53D40" stroke-linecap="round" stroke-linejoin="round"/>
<path d="M181.598 210.386H188.806" stroke="#B53D40" stroke-linecap="round" stroke-linejoin="round"/>
<path d="M194.716 78.3897C195.621 78.3897 196.355 77.6584 196.355 76.7564C196.355 75.8543 195.621 75.123 194.716 75.123C193.811 75.123 193.077 75.8543 193.077 76.7564C193.077 77.6584 193.811 78.3897 194.716 78.3897Z" fill="#C15D5F"/>
<defs>
<filter id="filter0_f_3614_46620" x="161.527" y="237.153" width="130.789" height="15.6338" filterUnits="userSpaceOnUse" color-interpolation-filters="sRGB">
<feFlood flood-opacity="0" result="BackgroundImageFix"/>
<feBlend mode="normal" in="SourceGraphic" in2="BackgroundImageFix" result="shape"/>
<feGaussianBlur stdDeviation="2" result="effect1_foregroundBlur_3614_46620"/>
</filter>
</defs>
</svg>
