<svg width="121" height="29" viewBox="0 0 121 29" fill="none" xmlns="http://www.w3.org/2000/svg">
<path d="M18.48 24.192C16.784 24.192 15.448 23.816 14.472 23.064C13.512 22.312 13.032 21.296 13.032 20.016C13.032 19.872 13.048 19.656 13.08 19.368L13.152 18.768C13.168 18.688 13.2 18.624 13.248 18.576C13.312 18.512 13.384 18.48 13.464 18.48H15.552C15.632 18.48 15.696 18.512 15.744 18.576C15.792 18.624 15.808 18.688 15.792 18.768L15.72 19.224L15.696 19.488C15.696 20.16 15.984 20.712 16.56 21.144C17.152 21.576 17.96 21.792 18.984 21.792C19.992 21.792 20.768 21.552 21.312 21.072C21.856 20.592 22.128 19.992 22.128 19.272C22.128 18.728 21.88 18.28 21.384 17.928C20.888 17.576 20.008 17.136 18.744 16.608C17.784 16.224 17 15.864 16.392 15.528C15.784 15.192 15.272 14.752 14.856 14.208C14.456 13.664 14.256 12.992 14.256 12.192C14.256 11.136 14.512 10.216 15.024 9.432C15.552 8.648 16.272 8.048 17.184 7.632C18.112 7.216 19.16 7.008 20.328 7.008C21.96 7.008 23.256 7.4 24.216 8.184C25.192 8.968 25.68 10.016 25.68 11.328C25.68 11.456 25.664 11.664 25.632 11.952L25.584 12.36C25.568 12.44 25.528 12.512 25.464 12.576C25.416 12.624 25.352 12.648 25.272 12.648H23.16C23.08 12.648 23.016 12.624 22.968 12.576C22.92 12.512 22.904 12.44 22.92 12.36L22.968 12.096L22.992 11.808C22.992 11.12 22.72 10.552 22.176 10.104C21.648 9.64 20.896 9.408 19.92 9.408C18.992 9.408 18.256 9.616 17.712 10.032C17.184 10.448 16.92 11.04 16.92 11.808C16.92 12.208 17.04 12.552 17.28 12.84C17.52 13.112 17.864 13.36 18.312 13.584C18.76 13.808 19.448 14.104 20.376 14.472C21.352 14.872 22.136 15.232 22.728 15.552C23.32 15.872 23.824 16.304 24.24 16.848C24.656 17.392 24.864 18.072 24.864 18.888C24.864 19 24.848 19.2 24.816 19.488C24.64 20.928 23.984 22.072 22.848 22.92C21.728 23.768 20.272 24.192 18.48 24.192ZM39.8218 9.312C39.8058 9.392 39.7658 9.464 39.7018 9.528C39.6538 9.576 39.5898 9.6 39.5098 9.6H31.5658C31.5338 9.6 31.5018 9.616 31.4698 9.648C31.4538 9.664 31.4458 9.688 31.4458 9.72L30.8938 14.208C30.8938 14.288 30.9258 14.328 30.9898 14.328H36.3178C36.4938 14.328 36.5818 14.424 36.5818 14.616L36.3418 16.44C36.3258 16.52 36.2858 16.592 36.2218 16.656C36.1738 16.704 36.1098 16.728 36.0298 16.728H30.7018C30.6218 16.728 30.5818 16.768 30.5818 16.848L30.0058 21.48C29.9738 21.56 30.0058 21.6 30.1018 21.6H38.0458C38.1258 21.6 38.1898 21.632 38.2378 21.696C38.2858 21.744 38.3018 21.808 38.2858 21.888L38.0698 23.712C38.0538 23.792 38.0138 23.864 37.9498 23.928C37.9018 23.976 37.8378 24 37.7578 24H27.2698C27.1898 24 27.1258 23.976 27.0778 23.928C27.0298 23.864 27.0138 23.792 27.0298 23.712L29.0218 7.488C29.0378 7.408 29.0698 7.344 29.1178 7.296C29.1818 7.232 29.2538 7.2 29.3338 7.2H39.7978C39.8778 7.2 39.9418 7.232 39.9898 7.296C40.0538 7.344 40.0778 7.408 40.0618 7.488L39.8218 9.312ZM52.2831 7.488C52.2991 7.408 52.3311 7.344 52.3791 7.296C52.4431 7.232 52.5151 7.2 52.5951 7.2H54.7311C54.8111 7.2 54.8751 7.232 54.9231 7.296C54.9711 7.344 54.9871 7.408 54.9711 7.488L52.9791 23.712C52.9631 23.792 52.9231 23.864 52.8591 23.928C52.8111 23.976 52.7471 24 52.6671 24H50.6031C50.4431 24 50.3391 23.936 50.2911 23.808L44.9871 12.48C44.9551 12.432 44.9231 12.416 44.8911 12.432C44.8591 12.432 44.8431 12.464 44.8431 12.528L43.4991 23.712C43.4991 23.792 43.4671 23.864 43.4031 23.928C43.3391 23.976 43.2671 24 43.1871 24H41.0511C40.9711 24 40.9071 23.976 40.8591 23.928C40.8111 23.864 40.7951 23.792 40.8111 23.712L42.8031 7.488C42.8191 7.408 42.8511 7.344 42.8991 7.296C42.9631 7.232 43.0351 7.2 43.1151 7.2H45.1791C45.3391 7.2 45.4431 7.264 45.4911 7.392L50.7711 18.72C50.8031 18.768 50.8351 18.792 50.8671 18.792C50.8991 18.776 50.9151 18.736 50.9151 18.672L52.2831 7.488ZM66.453 24C66.309 24 66.221 23.92 66.189 23.76L65.733 21.192C65.733 21.176 65.725 21.16 65.709 21.144C65.693 21.112 65.669 21.096 65.637 21.096H59.493C59.461 21.096 59.413 21.128 59.349 21.192L58.269 23.76C58.221 23.92 58.109 24 57.933 24H55.605C55.509 24 55.437 23.968 55.389 23.904C55.357 23.84 55.365 23.76 55.413 23.664L62.469 7.44C62.549 7.28 62.661 7.2 62.805 7.2H65.709C65.853 7.2 65.941 7.28 65.973 7.44L69.069 23.664V23.736C69.069 23.912 68.973 24 68.781 24H66.453ZM60.381 18.768C60.333 18.864 60.357 18.912 60.453 18.912H65.181C65.277 18.912 65.309 18.864 65.277 18.768L63.885 10.728C63.869 10.664 63.845 10.632 63.813 10.632C63.781 10.632 63.757 10.664 63.741 10.728L60.381 18.768ZM82.3598 7.2C82.4398 7.2 82.5038 7.232 82.5518 7.296C82.5998 7.344 82.6158 7.408 82.5998 7.488L82.3598 9.336C82.3438 9.416 82.3038 9.488 82.2398 9.552C82.1918 9.6 82.1278 9.624 82.0478 9.624H77.7758C77.7118 9.624 77.6638 9.664 77.6318 9.744L75.9278 23.712C75.9118 23.792 75.8718 23.864 75.8078 23.928C75.7598 23.976 75.6958 24 75.6158 24H73.4558C73.3758 24 73.3118 23.976 73.2638 23.928C73.2158 23.864 73.1998 23.792 73.2158 23.712L74.9438 9.744C74.9438 9.664 74.9038 9.624 74.8238 9.624H70.7198C70.6398 9.624 70.5758 9.6 70.5278 9.552C70.4798 9.488 70.4638 9.416 70.4798 9.336L70.6958 7.488C70.7118 7.408 70.7438 7.344 70.7918 7.296C70.8558 7.232 70.9278 7.2 71.0078 7.2H82.3598ZM95.8843 9.312C95.8683 9.392 95.8283 9.464 95.7643 9.528C95.7163 9.576 95.6523 9.6 95.5723 9.6H87.6283C87.5963 9.6 87.5643 9.616 87.5323 9.648C87.5163 9.664 87.5083 9.688 87.5083 9.72L86.9563 14.208C86.9563 14.288 86.9883 14.328 87.0523 14.328H92.3803C92.5563 14.328 92.6443 14.424 92.6443 14.616L92.4043 16.44C92.3883 16.52 92.3483 16.592 92.2843 16.656C92.2363 16.704 92.1723 16.728 92.0923 16.728H86.7643C86.6843 16.728 86.6443 16.768 86.6443 16.848L86.0683 21.48C86.0363 21.56 86.0683 21.6 86.1643 21.6H94.1083C94.1883 21.6 94.2523 21.632 94.3003 21.696C94.3483 21.744 94.3643 21.808 94.3483 21.888L94.1323 23.712C94.1163 23.792 94.0763 23.864 94.0123 23.928C93.9643 23.976 93.9003 24 93.8203 24H83.3323C83.2523 24 83.1883 23.976 83.1403 23.928C83.0923 23.864 83.0763 23.792 83.0923 23.712L85.0843 7.488C85.1003 7.408 85.1323 7.344 85.1803 7.296C85.2443 7.232 85.3163 7.2 85.3963 7.2H95.8603C95.9403 7.2 96.0043 7.232 96.0523 7.296C96.1163 7.344 96.1403 7.408 96.1243 7.488L95.8843 9.312Z" fill="#172450"/>
<circle cx="100" cy="21" r="3" fill="#9E2325"/>
</svg>
