<svg width="24" height="25" viewBox="0 0 24 25" fill="none" xmlns="http://www.w3.org/2000/svg">
<path d="M13.5278 19.0537L13.5278 6.91727C13.5278 6.24679 13.1436 5.83998 12.5485 5.83998C12.2622 5.83998 11.9458 5.98312 11.6972 6.23172L5.71561 11.8818C5.34647 12.2585 5.14307 12.5749 5.14307 12.9893C5.14307 13.3961 5.36154 13.72 5.71561 14.0891L11.6972 19.7393C11.9533 19.9954 12.2622 20.1385 12.5485 20.1385C13.1436 20.131 13.5278 19.7242 13.5278 19.0537ZM19.3361 18.9181L19.3361 7.03781C19.3361 6.23172 18.854 5.74958 18.0479 5.74958L16.4433 5.74958C15.6447 5.74958 15.1551 6.23172 15.1551 7.03781L15.1551 18.9181C15.1551 19.7317 15.6447 20.2139 16.4433 20.2139L18.0479 20.2139C18.854 20.2139 19.3361 19.7317 19.3361 18.9181Z" fill="#D49091"/>
</svg>
