<svg width="28" height="28" viewBox="0 0 28 28" fill="none" xmlns="http://www.w3.org/2000/svg">
<path d="M6.47656 20.2314H10.0977C10.1592 21.9014 11.5303 23.4482 13.5518 23.4482C15.5645 23.4482 16.9443 21.9189 17.0146 20.2314H20.627C21.541 20.2314 22.1035 19.7305 22.1035 18.9746C22.1035 18.0342 21.251 17.2344 20.4512 16.4697C19.8271 15.8633 19.6777 14.6504 19.5635 13.4111C19.4404 10.0977 18.4648 7.88281 16.1797 7.05664C15.8369 5.8877 14.8613 5 13.5518 5C12.2422 5 11.2666 5.8877 10.9326 7.05664C8.63867 7.88281 7.67188 10.0977 7.54004 13.4111C7.42578 14.6504 7.27637 15.8633 6.65234 16.4697C5.85254 17.2344 5 18.0342 5 18.9746C5 19.7305 5.5625 20.2314 6.47656 20.2314ZM7.14453 18.5967V18.4912C7.37305 18.2363 7.88281 17.7705 8.31348 17.2783C8.91992 16.584 9.20117 15.3008 9.28906 13.6309C9.39453 10.1064 10.4844 8.91992 11.8906 8.54199C12.1104 8.48047 12.2246 8.375 12.2422 8.1377C12.2861 7.25 12.7871 6.65234 13.5518 6.65234C14.3252 6.65234 14.8174 7.25 14.8613 8.1377C14.8789 8.375 15.002 8.48047 15.2129 8.54199C16.6279 8.91992 17.709 10.1064 17.8145 13.6309C17.9111 15.3008 18.1924 16.584 18.79 17.2783C19.2207 17.7705 19.7129 18.2363 19.9414 18.4912V18.5967H7.14453ZM13.5518 22.0332C12.5586 22.0332 11.8467 21.3213 11.7852 20.2314H15.3271C15.2744 21.3125 14.5537 22.0332 13.5518 22.0332Z" fill="#455073"/>
</svg>
