<svg width="28" height="28" viewBox="0 0 28 28" fill="none" xmlns="http://www.w3.org/2000/svg">
<path d="M18.5879 13.7412C20.7148 13.7412 22.4375 11.8691 22.4375 9.56641C22.4375 7.29883 20.7236 5.48828 18.5879 5.48828C16.4785 5.48828 14.7383 7.3252 14.7383 9.58398C14.7471 11.8779 16.4697 13.7412 18.5879 13.7412ZM8.40137 13.9434C10.2559 13.9434 11.75 12.2998 11.75 10.2695C11.75 8.29199 10.2559 6.69238 8.40137 6.69238C6.56445 6.69238 5.04395 8.31836 5.05273 10.2783C5.05273 12.3086 6.55566 13.9434 8.40137 13.9434ZM18.5879 12.2031C17.375 12.2031 16.3467 11.0605 16.3467 9.5752C16.3467 8.14258 17.3662 7.02637 18.5879 7.02637C19.8184 7.02637 20.8291 8.125 20.8291 9.56641C20.8291 11.043 19.8096 12.2031 18.5879 12.2031ZM8.40137 12.4229C7.4082 12.4229 6.56445 11.4736 6.56445 10.2783C6.56445 9.13574 7.39941 8.2041 8.40137 8.2041C9.4209 8.2041 10.2471 9.11816 10.2471 10.2695C10.2471 11.4736 9.40332 12.4229 8.40137 12.4229ZM3.56738 22.0205H10.3965C9.91309 21.7393 9.58789 21.0977 9.64942 20.5176H3.48828C3.32129 20.5176 3.25098 20.4385 3.25098 20.2891C3.25098 18.2764 5.60645 16.3604 8.39258 16.3604C9.37695 16.3604 10.3613 16.6064 11.1172 17.0283C11.416 16.5977 11.7852 16.2285 12.2686 15.9121C11.1523 15.2266 9.76367 14.8574 8.39258 14.8574C4.67481 14.8574 1.66895 17.5117 1.66895 20.4297C1.66895 21.4844 2.30176 22.0205 3.56738 22.0205ZM13.1123 22.0205H24.0635C25.584 22.0205 26.3223 21.5371 26.3223 20.5C26.3223 18.083 23.2988 14.8662 18.5879 14.8662C13.877 14.8662 10.8535 18.083 10.8535 20.5C10.8535 21.5371 11.5918 22.0205 13.1123 22.0205ZM12.8311 20.4824C12.6289 20.4824 12.5498 20.4121 12.5498 20.2539C12.5498 18.9092 14.7207 16.4043 18.5879 16.4043C22.4551 16.4043 24.626 18.9092 24.626 20.2539C24.626 20.4121 24.5469 20.4824 24.3359 20.4824H12.8311Z" fill="#455073"/>
</svg>
