<svg width="28" height="28" viewBox="0 0 28 28" fill="none" xmlns="http://www.w3.org/2000/svg">
<path d="M14 13.8467C16.127 13.8467 17.8496 11.9658 17.8496 9.66309C17.8496 7.39551 16.127 5.59375 14 5.59375C11.8818 5.59375 10.1416 7.42188 10.1504 9.68066C10.1592 11.9746 11.873 13.8467 14 13.8467ZM14 12.3086C12.7871 12.3086 11.7588 11.1572 11.7588 9.68066C11.75 8.23926 12.7783 7.13184 14 7.13184C15.2305 7.13184 16.2412 8.22168 16.2412 9.66309C16.2412 11.1396 15.2217 12.3086 14 12.3086ZM8.51562 22.0205H19.4756C20.9961 22.0205 21.7256 21.5371 21.7256 20.5C21.7256 18.083 18.7109 14.8662 14 14.8662C9.28906 14.8662 6.26562 18.083 6.26562 20.5C6.26562 21.5371 6.99512 22.0205 8.51562 22.0205ZM8.24316 20.4824C8.03223 20.4824 7.95312 20.4121 7.95312 20.2539C7.95312 18.9092 10.124 16.4043 14 16.4043C17.8672 16.4043 20.0381 18.9092 20.0381 20.2539C20.0381 20.4121 19.959 20.4824 19.748 20.4824H8.24316Z" fill="#455073"/>
</svg>
