<svg width="25" height="29" viewBox="0 0 25 29" fill="none" xmlns="http://www.w3.org/2000/svg">
<path d="M10.9722 9.94629L10.9722 22.0827C10.9722 22.7532 11.3564 23.16 11.9515 23.16C12.2378 23.16 12.5542 23.0169 12.8028 22.7683L18.7844 17.1182C19.1535 16.7415 19.3569 16.4251 19.3569 16.0107C19.3569 15.6039 19.1385 15.28 18.7844 14.9109L12.8028 9.26074C12.5467 9.0046 12.2378 8.86147 11.9515 8.86147C11.3564 8.869 10.9722 9.27581 10.9722 9.94629ZM5.16385 10.0819L5.16385 21.9622C5.16385 22.7683 5.646 23.2504 6.45208 23.2504L8.05671 23.2504C8.85526 23.2504 9.34494 22.7683 9.34494 21.9622L9.34494 10.0819C9.34494 9.26828 8.85526 8.78613 8.05671 8.78613L6.45208 8.78613C5.646 8.78613 5.16385 9.26828 5.16385 10.0819Z" fill="#D49091"/>
</svg>
