<svg width="28" height="29" viewBox="0 0 28 29" fill="none" xmlns="http://www.w3.org/2000/svg">
<g clip-path="url(#clip0_3161_57453)">
<path d="M18.98 24.192C17.284 24.192 15.948 23.816 14.972 23.064C14.012 22.312 13.532 21.296 13.532 20.016C13.532 19.872 13.548 19.656 13.58 19.368L13.652 18.768C13.668 18.688 13.7 18.624 13.748 18.576C13.812 18.512 13.884 18.48 13.964 18.48H16.052C16.132 18.48 16.196 18.512 16.244 18.576C16.292 18.624 16.308 18.688 16.292 18.768L16.22 19.224L16.196 19.488C16.196 20.16 16.484 20.712 17.06 21.144C17.652 21.576 18.46 21.792 19.484 21.792C20.492 21.792 21.268 21.552 21.812 21.072C22.356 20.592 22.628 19.992 22.628 19.272C22.628 18.728 22.38 18.28 21.884 17.928C21.388 17.576 20.508 17.136 19.244 16.608C18.284 16.224 17.5 15.864 16.892 15.528C16.284 15.192 15.772 14.752 15.356 14.208C14.956 13.664 14.756 12.992 14.756 12.192C14.756 11.136 15.012 10.216 15.524 9.432C16.052 8.648 16.772 8.048 17.684 7.632C18.612 7.216 19.66 7.008 20.828 7.008C22.46 7.008 23.756 7.4 24.716 8.184C25.692 8.968 26.18 10.016 26.18 11.328C26.18 11.456 26.164 11.664 26.132 11.952L26.084 12.36C26.068 12.44 26.028 12.512 25.964 12.576C25.916 12.624 25.852 12.648 25.772 12.648H23.66C23.58 12.648 23.516 12.624 23.468 12.576C23.42 12.512 23.404 12.44 23.42 12.36L23.468 12.096L23.492 11.808C23.492 11.12 23.22 10.552 22.676 10.104C22.148 9.64 21.396 9.408 20.42 9.408C19.492 9.408 18.756 9.616 18.212 10.032C17.684 10.448 17.42 11.04 17.42 11.808C17.42 12.208 17.54 12.552 17.78 12.84C18.02 13.112 18.364 13.36 18.812 13.584C19.26 13.808 19.948 14.104 20.876 14.472C21.852 14.872 22.636 15.232 23.228 15.552C23.82 15.872 24.324 16.304 24.74 16.848C25.156 17.392 25.364 18.072 25.364 18.888C25.364 19 25.348 19.2 25.316 19.488C25.14 20.928 24.484 22.072 23.348 22.92C22.228 23.768 20.772 24.192 18.98 24.192ZM40.3218 9.312C40.3058 9.392 40.2658 9.464 40.2018 9.528C40.1538 9.576 40.0898 9.6 40.0098 9.6H32.0658C32.0338 9.6 32.0018 9.616 31.9698 9.648C31.9538 9.664 31.9458 9.688 31.9458 9.72L31.3938 14.208C31.3938 14.288 31.4258 14.328 31.4898 14.328H36.8178C36.9938 14.328 37.0818 14.424 37.0818 14.616L36.8418 16.44C36.8258 16.52 36.7858 16.592 36.7218 16.656C36.6738 16.704 36.6098 16.728 36.5298 16.728H31.2018C31.1218 16.728 31.0818 16.768 31.0818 16.848L30.5058 21.48C30.4738 21.56 30.5058 21.6 30.6018 21.6H38.5458C38.6258 21.6 38.6898 21.632 38.7378 21.696C38.7858 21.744 38.8018 21.808 38.7858 21.888L38.5698 23.712C38.5538 23.792 38.5138 23.864 38.4498 23.928C38.4018 23.976 38.3378 24 38.2578 24H27.7698C27.6898 24 27.6258 23.976 27.5778 23.928C27.5298 23.864 27.5138 23.792 27.5298 23.712L29.5218 7.488C29.5378 7.408 29.5698 7.344 29.6178 7.296C29.6818 7.232 29.7538 7.2 29.8338 7.2H40.2978C40.3778 7.2 40.4418 7.232 40.4898 7.296C40.5538 7.344 40.5778 7.408 40.5618 7.488L40.3218 9.312ZM52.7831 7.488C52.7991 7.408 52.8311 7.344 52.8791 7.296C52.9431 7.232 53.0151 7.2 53.0951 7.2H55.2311C55.3111 7.2 55.3751 7.232 55.4231 7.296C55.4711 7.344 55.4871 7.408 55.4711 7.488L53.4791 23.712C53.4631 23.792 53.4231 23.864 53.3591 23.928C53.3111 23.976 53.2471 24 53.1671 24H51.1031C50.9431 24 50.8391 23.936 50.7911 23.808L45.4871 12.48C45.4551 12.432 45.4231 12.416 45.3911 12.432C45.3591 12.432 45.3431 12.464 45.3431 12.528L43.9991 23.712C43.9991 23.792 43.9671 23.864 43.9031 23.928C43.8391 23.976 43.7671 24 43.6871 24H41.5511C41.4711 24 41.4071 23.976 41.3591 23.928C41.3111 23.864 41.2951 23.792 41.3111 23.712L43.3031 7.488C43.3191 7.408 43.3511 7.344 43.3991 7.296C43.4631 7.232 43.5351 7.2 43.6151 7.2H45.6791C45.8391 7.2 45.9431 7.264 45.9911 7.392L51.2711 18.72C51.3031 18.768 51.3351 18.792 51.3671 18.792C51.3991 18.776 51.4151 18.736 51.4151 18.672L52.7831 7.488ZM66.953 24C66.809 24 66.721 23.92 66.689 23.76L66.233 21.192C66.233 21.176 66.225 21.16 66.209 21.144C66.193 21.112 66.169 21.096 66.137 21.096H59.993C59.961 21.096 59.913 21.128 59.849 21.192L58.769 23.76C58.721 23.92 58.609 24 58.433 24H56.105C56.009 24 55.937 23.968 55.889 23.904C55.857 23.84 55.865 23.76 55.913 23.664L62.969 7.44C63.049 7.28 63.161 7.2 63.305 7.2H66.209C66.353 7.2 66.441 7.28 66.473 7.44L69.569 23.664V23.736C69.569 23.912 69.473 24 69.281 24H66.953ZM60.881 18.768C60.833 18.864 60.857 18.912 60.953 18.912H65.681C65.777 18.912 65.809 18.864 65.777 18.768L64.385 10.728C64.369 10.664 64.345 10.632 64.313 10.632C64.281 10.632 64.257 10.664 64.241 10.728L60.881 18.768ZM82.8598 7.2C82.9398 7.2 83.0038 7.232 83.0518 7.296C83.0998 7.344 83.1158 7.408 83.0998 7.488L82.8598 9.336C82.8438 9.416 82.8038 9.488 82.7398 9.552C82.6918 9.6 82.6278 9.624 82.5478 9.624H78.2758C78.2118 9.624 78.1638 9.664 78.1318 9.744L76.4278 23.712C76.4118 23.792 76.3718 23.864 76.3078 23.928C76.2598 23.976 76.1958 24 76.1158 24H73.9558C73.8758 24 73.8118 23.976 73.7638 23.928C73.7158 23.864 73.6998 23.792 73.7158 23.712L75.4438 9.744C75.4438 9.664 75.4038 9.624 75.3238 9.624H71.2198C71.1398 9.624 71.0758 9.6 71.0278 9.552C70.9798 9.488 70.9638 9.416 70.9798 9.336L71.1958 7.488C71.2118 7.408 71.2438 7.344 71.2918 7.296C71.3558 7.232 71.4278 7.2 71.5078 7.2H82.8598ZM96.3843 9.312C96.3683 9.392 96.3283 9.464 96.2643 9.528C96.2163 9.576 96.1523 9.6 96.0723 9.6H88.1283C88.0963 9.6 88.0643 9.616 88.0323 9.648C88.0163 9.664 88.0083 9.688 88.0083 9.72L87.4563 14.208C87.4563 14.288 87.4883 14.328 87.5523 14.328H92.8803C93.0563 14.328 93.1443 14.424 93.1443 14.616L92.9043 16.44C92.8883 16.52 92.8483 16.592 92.7843 16.656C92.7363 16.704 92.6723 16.728 92.5923 16.728H87.2643C87.1843 16.728 87.1443 16.768 87.1443 16.848L86.5683 21.48C86.5363 21.56 86.5683 21.6 86.6643 21.6H94.6083C94.6883 21.6 94.7523 21.632 94.8003 21.696C94.8483 21.744 94.8643 21.808 94.8483 21.888L94.6323 23.712C94.6163 23.792 94.5763 23.864 94.5123 23.928C94.4643 23.976 94.4003 24 94.3203 24H83.8323C83.7523 24 83.6883 23.976 83.6403 23.928C83.5923 23.864 83.5763 23.792 83.5923 23.712L85.5843 7.488C85.6003 7.408 85.6323 7.344 85.6803 7.296C85.7443 7.232 85.8163 7.2 85.8963 7.2H96.3603C96.4403 7.2 96.5043 7.232 96.5523 7.296C96.6163 7.344 96.6403 7.408 96.6243 7.488L96.3843 9.312Z" fill="#172450"/>
</g>
<defs>
<clipPath id="clip0_3161_57453">
<rect width="27" height="29" fill="white" transform="translate(0.5)"/>
</clipPath>
</defs>
</svg>
